<svg width="411.00000000000006" height="212" xmlns="http://www.w3.org/2000/svg" preserveAspectRatio="xMidYMid meet">

 <g>
  <title>background</title>
  <rect fill="none" id="canvas_background" height="402" width="582" y="-1" x="-1"/>
 </g>
 <g>
  <title>Layer 1</title>
  <g id="svg_1" fill="#000000" transform="translate(0,212) scale(0.10000000149011612,-0.10000000149011612) ">
   <path id="svg_3" d="m280,890l0,-520l175,0l175,0l0,130l0,130l118,0c253,1 396,70 471,229c23,49 26,68 26,161c0,93 -3,112 -26,161c-35,74 -91,129 -170,168c-108,53 -171,61 -486,61l-283,0l0,-520zm560,235c41,-21 60,-53 60,-103c0,-52 -23,-95 -59,-113c-14,-7 -68,-14 -118,-17l-93,-4l0,126l0,126l90,0c61,0 100,-5 120,-15z"/>
   <path id="svg_4" d="m1370,891l0,-521l175,0l175,0l0,131l0,130l51,-3l52,-3l86,-127l86,-128l183,0c100,0 182,2 182,5c0,3 -45,71 -101,151c-55,81 -103,152 -105,159c-3,7 4,16 15,20c35,11 115,97 140,150c29,62 39,189 21,264c-29,120 -127,216 -270,263c-60,20 -91,22 -377,26l-313,4l0,-521zm560,234c42,-22 60,-53 60,-107c0,-90 -60,-127 -202,-128l-68,0l0,125l0,125l90,0c61,0 100,-5 120,-15z"/>
   <path id="svg_5" d="m2480,890l0,-520l175,0l175,0l0,520l0,520l-175,0l-175,0l0,-520z"/>
   <path id="svg_6" d="m2920,1275l0,-135l155,0l155,0l0,-385l0,-385l170,0l170,0l0,385l0,385l155,0l155,0l0,135l0,135l-480,0l-480,0l0,-135z"/>
  </g>
  <rect id="svg_7" height="22.038245" width="134.088118" y="34.159969" x="28.397477" stroke-opacity="null" stroke-width="null" stroke="null" fill="#eb3f3f"/>
 </g>
</svg>